<svg width="25" height="24" viewBox="0 0 25 24" fill="none" xmlns="http://www.w3.org/2000/svg">
<path d="M12.875 0C19.5024 0 24.875 5.37258 24.875 12C24.875 18.6274 19.5024 24 12.875 24C6.24758 24 0.875 18.6274 0.875 12C0.875 5.37258 6.24758 0 12.875 0ZM10.4883 8.00195C10.365 7.9943 10.2415 8.01299 10.126 8.05664C10.0104 8.10033 9.90485 8.16755 9.81738 8.25488L9.30078 8.77246C8.9309 9.14246 8.76825 9.69601 8.94922 10.2109C9.41298 11.5302 10.1685 12.7278 11.1592 13.7148C12.1464 14.7057 13.3445 15.4611 14.6641 15.9248C15.1795 16.1063 15.7325 15.9441 16.1025 15.5742L16.6201 15.0566C16.9907 14.6861 16.9524 14.0744 16.5381 13.752L15.3848 12.8545C15.2805 12.7738 15.1593 12.7177 15.0303 12.6904C14.901 12.6632 14.7669 12.6655 14.6387 12.6973L13.5439 12.9707C13.4872 12.9848 13.4275 12.9843 13.3711 12.9688C13.3147 12.9532 13.2631 12.9231 13.2217 12.8818L11.9932 11.6533C11.952 11.6119 11.9218 11.5602 11.9062 11.5039C11.8907 11.4478 11.8904 11.3886 11.9043 11.332L12.1777 10.2363C12.2426 9.9764 12.185 9.70069 12.0205 9.48926L11.123 8.33691C11.0471 8.23935 10.9511 8.15832 10.8418 8.10059C10.7325 8.04287 10.6117 8.00966 10.4883 8.00195Z" fill="#FAFAFA"/>
</svg>
