<svg width="64" height="64" viewBox="0 0 64 64" fill="none" xmlns="http://www.w3.org/2000/svg">
<path d="M32 0C49.6731 0 64 14.3269 64 32C64 49.6731 49.6731 64 32 64C14.3269 64 0 49.6731 0 32C0 14.3269 14.3269 0 32 0ZM25.6367 21.3379C25.3077 21.3173 24.9774 21.3669 24.6689 21.4834C24.3607 21.5999 24.0809 21.7808 23.8477 22.0137L22.4688 23.3926C21.4822 24.3792 21.0486 25.8552 21.5312 27.2285C22.768 30.747 24.7827 33.941 27.4248 36.5732C30.0575 39.2156 33.2524 41.2302 36.7715 42.4668C38.1461 42.9507 39.6208 42.5178 40.6074 41.5312L41.9863 40.1523C42.9755 39.1643 42.8738 37.5309 41.7686 36.6709L38.6943 34.2793C38.4156 34.0633 38.0911 33.9126 37.7461 33.8398C37.4011 33.7671 37.0443 33.7743 36.7021 33.8594L33.7832 34.5879C33.6319 34.6255 33.4736 34.6235 33.3232 34.582C33.1728 34.5405 33.0354 34.4607 32.9248 34.3506L29.6484 31.0752C29.5387 30.9648 29.4596 30.8277 29.418 30.6777C29.3764 30.5276 29.3737 30.369 29.4111 30.2178L30.1406 27.2979C30.3139 26.6046 30.1593 25.8697 29.7207 25.3057L27.3271 22.2305C27.1247 21.9705 26.8694 21.7564 26.5781 21.6025C26.2867 21.4486 25.9656 21.3585 25.6367 21.3379Z" fill="#FAFAFA"/>
</svg>
